#!OML:ASF I:\Random Stuff\random\construction\7_22_03\Session 2\subj1.ASF
:FULLY-SPECIFIED
:DEGREES
708
root 5.69078 17.7096 -7.39361 5.09831 -60.535 1.59914
lowerback 1.31734 0.84507 0.606592
upperback -1.37472 1.16657 1.87366
thorax -2.175 0.583708 1.54494
lowerneck -17.013 -1.25712 -1.03519
upperneck 29.5604 -5.30524 9.98502
head 13.0852 -1.30949 3.16981
rclavicle 8.59744e-015 -4.77083e-015
rhumerus -28.5926 42.1372 -89.9323
rradius 104.111
rwrist -2.09563
rhand -21.0466 29.5178
rfingers 7.12502
rthumb 5.32933 -0.395197
lclavicle 8.59744e-015 -4.77083e-015
lhumerus -22.9277 -33.1037 94.177
lradius 124.763
lwrist 8.51348
lhand -12.4697 64.6756
lfingers 7.12502
lthumb 13.6043 265.789
rfemur -4.70975 16.5678 18.2799
rtibia 10.7072
rfoot -6.30157 -32.1077
rtoes -8.78967
lfemur -11.3671 -10.9116 -16.8535
ltibia 18.44
lfoot -13.0669 24.5434
ltoes -21.5085
709
root 5.68663 17.7087 -7.39486 5.1428 -60.5398 1.57085
lowerback 1.34023 0.862928 0.708973
upperback -1.45088 1.19334 1.79653
thorax -2.26293 0.594964 1.40653
lowerneck -17.1727 -1.28554 -0.936858
upperneck 29.8632 -5.38406 9.86098
head 13.2461 -1.33843 3.10181
rclavicle -5.2827e-014 -1.11319e-014
rhumerus -28.6424 42.3093 -89.9795
rradius 104.026
rwrist -2.67141
rhand -21.194 29.1741
rfingers 7.12502
rthumb 5.18702 -0.742384
lclavicle -5.2827e-014 -1.11319e-014
lhumerus -22.9468 -33.3341 93.9717
lradius 124.782
lwrist 9.32792
lhand -11.8362 64.5474
lfingers 7.12502
lthumb 14.2148 265.959
rfemur -4.70606 16.6191 18.304
rtibia 10.6781
rfoot -6.33623 -32.1462
rtoes -8.94031
lfemur -11.3846 -11.2917 -16.8118
ltibia 18.4849
lfoot -13.1873 24.894
ltoes -21.3113
710
root 5.68228 17.7077 -7.39584 5.14705 -60.5592 1.56973
lowerback 1.35421 0.887061 0.803401
upperback -1.49834 1.2275 1.70578
thorax -2.31619 0.609804 1.25869
lowerneck -17.4225 -1.30858 -0.744677
upperneck 30.2945 -5.47732 9.65184
head 13.4781 -1.36843 2.98509
rclavicle 6.31141e-015 8.74653e-015
rhumerus -28.6738 42.4161 -90.0639
rradius 103.908
rwrist -2.9578
rhand -21.4302 28.822
rfingers 7.12502
rthumb 4.95899 -1.09993
lclavicle 6.31141e-015 8.74653e-015
lhumerus -22.9976 -33.5703 93.7699
lradius 124.815
lwrist 9.66112
lhand -11.3445 64.1333
lfingers 7.12502
lthumb 14.6886 266.407
rfemur -4.70532 16.579 18.3168
rtibia 10.6889
rfoot -6.30751 -32.0997
rtoes -9.14188
lfemur -11.3739 -11.6778 -16.7872
ltibia 18.5114
lfoot -13.3555 25.2748
ltoes -21.16
711
root 5.67826 17.7065 -7.39836 5.09215 -60.5949 1.60961
lowerback 1.40914 0.903558 0.886775
upperback -1.53582 1.25169 1.59922
thorax -2.38176 0.619645 1.10055
lowerneck -17.1949 -1.30106 -0.696028
upperneck 29.868 -5.47101 9.80983
head 13.2533 -1.35557 3.0247
rclavicle 5.36719e-015 -3.18055e-015
rhumerus -28.717 42.4636 -90.2421
rradius 103.772
rwrist -3.0501
rhand -21.6615 28.3994
rfingers 7.12502
rthumb 4.7356 -1.52763
lclavicle 5.36719e-015 -3.18055e-015
lhumerus -23.0388 -33.7512 93.5902
lradius 124.852
lwrist 9.82643
lhand -11.1306 63.8562
lfingers 7.12502
lthumb 14.8947 266.699
rfemur -4.69426 16.6196 18.317
rtibia 10.7265
rfoot -6.32859 -32.1135
rtoes -9.16255
lfemur -11.3283 -11.8869 -16.7943
ltibia 18.5214
lfoot -13.4896 25.479
ltoes -20.8912
712
root 5.67462 17.7046 -7.40246 5.03571 -60.6278 1.66342
lowerback 1.46262 0.904634 0.902976
upperback -1.56857 1.25432 1.54416
thorax -2.44394 0.620181 1.03373
lowerneck -17.0869 -1.3284 -0.721212
upperneck 29.6147 -5.49831 9.90941
head 13.1304 -1.36649 3.05482
rclavicle -6.90777e-015 3.97569e-015
rhumerus -28.7442 42.5746 -90.3728
rradius 103.636
rwrist -3.20302
rhand -21.7576 28.1329
rfingers 7.12502
rthumb 4.64279 -1.79627
lclavicle -6.90777e-015 3.97569e-015
lhumerus -23.0406 -33.8203 93.5181
lradius 124.863
lwrist 10.1183
lhand -11.0001 63.9035
lfingers 7.12502
lthumb 15.0204 266.661
rfemur -4.70564 16.8214 18.3103
rtibia 10.7939
rfoot -6.42988 -32.2966
rtoes -8.62262
lfemur -11.2898 -11.9158 -16.8095
ltibia 18.5092
lfoot -13.5278 25.5086
ltoes -20.7571
713
root 5.67238 17.704 -7.40659 5.0368 -60.6394 1.69258
lowerback 1.48067 0.892002 0.85705
upperback -1.60577 1.23748 1.56073
thorax -2.49351 0.612618 1.0765
lowerneck -17.0709 -1.37774 -0.805777
upperneck 29.5265 -5.533 9.91916
head 13.0945 -1.39228 3.06469
rclavicle -2.43014e-014 -9.54166e-015
rhumerus -28.769 42.7907 -90.3997
rradius 103.511
rwrist -3.36598
rhand -21.6962 27.9721
rfingers 7.12502
rthumb 4.70214 -1.9557
lclavicle -2.43014e-014 -9.54166e-015
lhumerus -23.0899 -33.7842 93.5813
lradius 124.865
lwrist 10.6791
lhand -10.2856 64.0164
lfingers 7.12502
lthumb 15.7086 266.601
rfemur -4.76978 17.0512 18.3058
rtibia 10.8882
rfoot -6.53183 -32.5138
rtoes -7.66429
lfemur -11.2979 -11.9352 -16.8011
ltibia 18.4715
lfoot -13.4949 25.5523
ltoes -20.9333
714
root 5.67123 17.7049 -7.41116 5.07075 -60.6504 1.7043
lowerback 1.48044 0.869282 0.782105
upperback -1.63178 1.2064 1.60937
thorax -2.52239 0.598797 1.16939
lowerneck -17.2202 -1.36224 -0.802877
upperneck 29.6662 -5.46825 9.736
head 13.1718 -1.37836 3.00753
rclavicle 4.91992e-014 0
rhumerus -28.7496 43.0117 -90.3624
rradius 103.427
rwrist -3.40636
rhand -21.7121 27.7624
rfingers 7.12502
rthumb 4.68676 -2.1658
lclavicle 4.91992e-014 0
lhumerus -23.2073 -33.6906 93.6953
lradius 124.891
lwrist 11.5266
lhand -8.40636 63.8111
lfingers 7.12502
lthumb 17.5178 266.958
rfemur -4.86098 17.2056 18.3032
rtibia 10.9721
rfoot -6.63532 -32.6202
rtoes -7.40699
lfemur -11.327 -12.0717 -16.7736
ltibia 18.4283
lfoot -13.4657 25.712
ltoes -21.0957
715
root 5.66994 17.7061 -7.41622 5.09228 -60.6698 1.70791
lowerback 1.4835 0.840427 0.694326
upperback -1.62693 1.16664 1.67096
thorax -2.52161 0.581065 1.28331
lowerneck -17.3935 -1.33427 -0.791622
upperneck 29.776 -5.38278 9.5528
head 13.2405 -1.35432 2.95123
rclavicle -4.06515e-014 6.36111e-015
rhumerus -28.6742 43.1907 -90.2927
rradius 103.374
rwrist -3.3487
rhand -21.8085 27.5812
rfingers 7.12502
rthumb 4.59365 -2.34896
lclavicle -4.06515e-014 6.36111e-015
lhumerus -23.2707 -33.5602 93.8393
lradius 124.92
lwrist 12.5765
lhand -8.78591 64.0457
lfingers 7.12502
lthumb 17.1525 266.691
rfemur -4.93269 17.2176 18.3068
rtibia 11.031
rfoot -6.77277 -32.6001
rtoes -7.76792
lfemur -11.3316 -12.1843 -16.748
ltibia 18.3894
lfoot -13.4158 25.8329
ltoes -20.9512
716
root 5.66897 17.7063 -7.42137 5.12579 -60.6824 1.67401
lowerback 1.51807 0.826982 0.667278
upperback -1.62318 1.14895 1.69178
thorax -2.53789 0.572906 1.32004
lowerneck -17.3495 -1.37808 -0.836891
upperneck 29.5619 -5.4303 9.63819
head 13.1492 -1.37484 2.97774
rclavicle -1.44119e-015 -4.77083e-015
rhumerus -28.6193 43.2305 -90.2819
rradius 103.329
rwrist -3.2694
rhand -21.8211 27.4165
rfingers 7.12502
rthumb 4.5815 -2.51396
lclavicle -1.44119e-015 -4.77083e-015
lhumerus -23.2637 -33.4385 93.9904
lradius 124.957
lwrist 13.6355
lhand -8.58216 64.2027
lfingers 7.12502
lthumb 17.3486 266.552
rfemur -4.97569 17.1261 18.3349
rtibia 11.0676
rfoot -6.80233 -32.5556
rtoes -8.0871
lfemur -11.3237 -12.1347 -16.7064
ltibia 18.3535
lfoot -13.4053 25.7576
ltoes -20.4454
717
root 5.66915 17.7057 -7.4269 5.19362 -60.6914 1.60918
lowerback 1.57288 0.824158 0.686581
upperback -1.63417 1.14669 1.68061
thorax -2.5794 0.571337 1.29697
lowerneck -17.2218 -1.4637 -0.879016
upperneck 29.2354 -5.56304 9.83616
head 13.0052 -1.42396 3.03004
rclavicle -7.41964e-014 -6.36111e-015
rhumerus -28.6218 43.1811 -90.3583
rradius 103.293
rwrist -3.25925
rhand -21.7374 27.2778
rfingers 7.12502
rthumb 4.66234 -2.65086
lclavicle -7.41964e-014 -6.36111e-015
lhumerus -23.293 -33.335 94.1059
lradius 125.053
lwrist 14.5864
lhand -8.18116 64.2507
lfingers 7.12502
lthumb 17.7345 266.538
rfemur -5.023 17.0015 18.3796
rtibia 11.088
rfoot -6.62508 -32.4824
rtoes -8.33736
lfemur -11.3363 -11.9697 -16.6435
ltibia 18.3232
lfoot -13.4116 25.5562
ltoes -20.1792
718
root 5.67021 17.706 -7.43435 5.24265 -60.7064 1.55183
lowerback 1.67188 0.81213 0.684271
upperback -1.64834 1.13267 1.68087
thorax -2.64954 0.564399 1.29758
lowerneck -17.118 -1.55033 -0.932866
upperneck 28.9433 -5.68099 9.98614
head 12.8789 -1.47294 3.06905
rclavicle 4.02042e-014 3.18055e-014
rhumerus -28.6837 43.1576 -90.5239
rradius 103.248
rwrist -3.35432
rhand -21.5502 27.2347
rfingers 7.12502
rthumb 4.84313 -2.68998
lclavicle 4.02042e-014 3.18055e-014
lhumerus -23.377 -33.2013 94.2255
lradius 125.17
lwrist 15.4199
lhand -8.15259 64.3848
lfingers 7.12502
lthumb 17.762 266.406
rfemur -5.06275 16.9316 18.4292
rtibia 11.1158
rfoot -6.54035 -32.3739
rtoes -8.31826
lfemur -11.3475 -11.7642 -16.5871
ltibia 18.2963
lfoot -13.1599 25.3932
ltoes -21.1703
719
root 5.67093 17.7066 -7.44334 5.21008 -60.7174 1.53935
lowerback 1.82815 0.784347 0.670842
upperback -1.6458 1.0981 1.67737
thorax -2.73451 0.547435 1.30078
lowerneck -17.1462 -1.56874 -0.937417
upperneck 28.8283 -5.68788 9.98212
head 12.8379 -1.47828 3.06326
rclavicle 3.47376e-014 -1.35174e-014
rhumerus -28.7095 43.1549 -90.7071
rradius 103.179
rwrist -3.4705
rhand -21.2187 27.222
rfingers 7.12502
rthumb 5.1632 -2.69512
lclavicle 3.47376e-014 -1.35174e-014
lhumerus -23.4446 -33.0862 94.3274
lradius 125.212
lwrist 16.2266
lhand -8.72323 64.567
lfingers 7.12502
lthumb 17.2128 266.175
rfemur -5.0484 16.9282 18.4708
rtibia 11.1438
rfoot -6.65271 -32.3291
rtoes -8.26612
lfemur -11.3199 -11.5859 -16.5628
ltibia 18.2762
lfoot -12.7621 25.2895
ltoes -22.7625
720
root 5.67179 17.7059 -7.45127 5.14693 -60.7074 1.57632
lowerback 1.95213 0.755831 0.664764
upperback -1.62199 1.06165 1.66529
thorax -2.77904 0.529343 1.29181
lowerneck -17.3593 -1.56378 -0.898256
upperneck 28.906 -5.65607 9.83842
head 12.9057 -1.46844 3.00814
rclavicle -6.26172e-015 -7.15625e-015
rhumerus -28.6768 43.1584 -90.8049
rradius 103.136
rwrist -3.44078
rhand -20.899 27.1891
rfingers 7.12502
rthumb 5.47182 -2.7203
lclavicle -6.26172e-015 -7.15625e-015
lhumerus -23.452 -33.0892 94.4025
lradius 125.189
lwrist 17.1473
lhand -9.59913 64.5981
lfingers 7.12502
lthumb 16.3696 266.073
rfemur -5.03485 16.8412 18.478
rtibia 11.1418
rfoot -6.68482 -32.2481
rtoes -8.44289
lfemur -11.31 -11.525 -16.5619
ltibia 18.276
lfoot -12.6058 25.2241
ltoes -23.3118
721
root 5.67369 17.7052 -7.45859 5.1994 -60.6858 1.53051
lowerback 2.03109 0.733968 0.695919
upperback -1.6039 1.0349 1.67884
thorax -2.80413 0.515483 1.28855
lowerneck -17.5309 -1.64229 -0.947048
upperneck 28.8845 -5.7326 9.78007
head 12.9375 -1.50906 2.98076
rclavicle -2.18663e-014 1.11319e-014
rhumerus -28.6938 43.1761 -90.878
rradius 103.137
rwrist -3.22015
rhand -20.6731 27.2668
rfingers 7.12502
rthumb 5.69002 -2.63676
lclavicle -2.18663e-014 1.11319e-014
lhumerus -23.4505 -33.1237 94.535
lradius 125.18
lwrist 18.2143
lhand -10.2257 64.6676
lfingers 7.12502
lthumb 15.7663 265.955
rfemur -5.08155 16.6064 18.5123
rtibia 11.1373
rfoot -6.60709 -31.9771
rtoes -8.57096
lfemur -11.3517 -11.4956 -16.5057
ltibia 18.277
lfoot -12.5353 25.1678
ltoes -23.4161
722
root 5.6749 17.7051 -7.46607 5.34231 -60.6726 1.37339
lowerback 2.11212 0.715401 0.760661
upperback -1.58823 1.01409 1.71226
thorax -2.83281 0.504025 1.28665
lowerneck -17.66 -1.75437 -1.00525
upperneck 28.7958 -5.85836 9.7594
head 12.9381 -1.57068 2.95932
rclavicle 1.81391e-014 -5.56597e-015
rhumerus -28.7274 43.1967 -90.9792
rradius 103.136
rwrist -3.04924
rhand -20.4914 27.4741
rfingers 7.12502
rthumb 5.86539 -2.42471
lclavicle 1.81391e-014 -5.56597e-015
lhumerus -23.5172 -33.1038 94.7321
lradius 125.171
lwrist 19.2942
lhand -10.4306 64.7969
lfingers 7.12502
lthumb 15.569 265.81
rfemur -5.13019 16.3405 18.6076
rtibia 11.1508
rfoot -6.55743 -31.67
rtoes -8.63771
lfemur -11.3775 -11.3919 -16.3923
ltibia 18.2635
lfoot -12.3874 25.0638
ltoes -23.8159
